<svg width="777" height="305" viewBox="0 0 777 305" fill="none" xmlns="http://www.w3.org/2000/svg">
<path d="M644.255 106.668C645.895 101.2 646.753 95.5585 646.753 89.7897C646.753 40.2003 583.411 0 505.273 0C457.465 0 415.195 15.0498 389.587 38.0922C364.999 24.9924 333.288 17.1028 298.675 17.1028C221.288 17.1028 158.414 56.5346 157.214 105.466H157.197C70.3786 105.466 0 150.133 0 205.233C0 260.333 70.3786 305 157.197 305H619.805C706.62 305 777 260.333 777 205.233C777 155.412 719.46 114.122 644.255 106.668Z" fill="#F4F4F4"/>
</svg>
