<svg width="278" height="119" viewBox="0 0 278 119" fill="none" xmlns="http://www.w3.org/2000/svg">
<path d="M230.506 41.6179C231.093 39.4846 231.399 37.2835 231.399 35.0327C231.399 15.6847 208.736 0 180.78 0C163.675 0 148.551 5.87188 139.389 14.8622C130.592 9.75114 119.246 6.6729 106.862 6.6729C79.1738 6.6729 56.6782 22.0578 56.2491 41.1492H56.2428C25.1805 41.1492 0 58.5765 0 80.0746C0 101.573 25.1805 119 56.2428 119H221.758C252.819 119 278 101.573 278 80.0746C278 60.636 257.413 44.5264 230.506 41.6179Z" fill="#F4F4F4"/>
</svg>
